<svg version="1.2" xmlns="http://www.w3.org/2000/svg" viewBox="0 0 516 147" width="516" height="147">
	<style>
		.s0 { fill: #121212 }
		.s1 { fill: #38c3e6 }
		@media (prefers-color-scheme: dark) { .s0 { fill: #fff } }
	</style>
	<path id="QUIC" fill-rule="evenodd" class="s0" d="m263.25 121.56l-12.25-6.38q-11.07 6.38-23.71 6.38-12.9 0-23.84-6.25-10.95-6.38-17.46-17.2-6.39-10.94-6.39-23.97 0-13.03 6.39-23.85 6.51-10.94 17.46-17.19 10.94-6.39 23.84-6.39 12.9 0 23.84 6.39 10.95 6.25 17.33 17.19 6.52 10.82 6.52 23.85 0 8.08-2.61 15.5-2.61 7.3-7.3 13.42l28.34 26.21zm-35.96-19.02q4.82 0 9.12-1.82l-9.77-9.77-12.84-13.03 36.03 9.9q4.04-6.39 4.04-13.68 0-8.08-3.65-14.59-3.52-6.52-9.64-10.17-6-3.78-13.29-3.78-7.3 0-13.42 3.78-5.99 3.65-9.64 10.17-3.52 6.51-3.52 14.59 0 7.95 3.52 14.46 3.65 6.51 9.64 10.29 6.12 3.65 13.42 3.65zm105.83 19.02q-10.95 0-20.07-4.17-9.12-4.16-14.85-13.02-5.6-8.99-5.73-22.55v-53.02h21.5v52.24q0 9.64 5.08 15.77 5.21 6.12 14.07 6.12 8.99 0 14.07-5.99 5.08-6.13 5.08-15.9v-52.24h21.5v53.02q-0.13 13.56-5.86 22.55-5.61 8.86-14.73 13.02-9.12 4.17-20.06 4.17zm58.35-1.56v-91.2h21.5v91.2zm84.56 1.56q-13.16 0-23.98-6.38-10.81-6.38-17.2-17.2-6.25-10.81-6.25-23.71 0-12.9 6.25-23.72 6.26-10.94 17.07-17.32 10.95-6.39 24.11-6.39 11.33 0 21.23 5.08 10.04 5.08 16.68 13.94l-14.98 11.21q-8.99-11.99-22.54-11.99-7.69 0-14.07 4.04-6.39 4.04-10.04 10.82-3.65 6.64-3.65 14.33 0 7.55 3.65 14.33 3.65 6.64 10.04 10.68 6.38 4.04 14.07 4.04 13.42 0 22.54-12.11l14.98 11.46q-6.64 8.73-16.55 13.81-9.9 5.08-21.36 5.08z"/>
	<g>
		<g>
			<path fill-rule="evenodd" class="s1" d="m91 27l13 11 5 11h26v51h-9l11 5 8 17h12v-95z"/>
			<path fill-rule="evenodd" class="s1" d="m126 100l19 22 8-11z"/>
		</g>
		<g>
			<path fill-rule="evenodd" class="s1" d="m101 27l-6 14 25 8z"/>
			<path fill-rule="evenodd" class="s1" d="m101 27h-34l18 22h35l-19-12z"/>
			<path fill-rule="evenodd" class="s1" d="m41 100l19 22 7-13z"/>
			<path fill-rule="evenodd" class="s1" d="m41 100l16 9 3 13h35l-18-22z"/>
		</g>
		<g>
			<path fill-rule="evenodd" class="s1" d="m17 27l1 18 18 5z"/>
			<path fill-rule="evenodd" class="s1" d="m4 27v95h67l-14-12-5-10h-26v-50h9l-18-23z"/>
			<path fill-rule="evenodd" class="s1" d="m32 100l-5 15 24 7z"/>
		</g>
	</g>
	<path fill-rule="evenodd" class="s1" d="m8 4l97 118 49 23-97-119z"/>
</svg>